<svg width="2553" height="1151" fill="none" xmlns="http://www.w3.org/2000/svg"><path d="M-2.5 180.5c37.833-2 208.4-71.9 242-33.5 42 48 208.5 52.5 306 73.5s72 157 148.5 211 329-98 517-61.5 82.5 211 230.5 237.5 280.5 160 177 227-270 144-207 201.5 353 145 443 84-19.5-130.5 161-149.5 333.5-119 205-211S1931 730.5 2052 627s80.5-184 124.5-232 113-86.5 140-25c21.6 49.2 166.33 37.167 236 25" stroke="#fff" stroke-width="2"/><path d="M1529-2.5c-23.17 20.333-75.9 95.6-63.5 170 15.5 93 27 142.5 104 167.5s217 18.5 271.5 16 61.5 29.5 131.5 0 67.5-73 117.5-118 75-208 97.5-233" stroke="#fff" stroke-width="2"/><circle cx="2168" cy="823" r="13" stroke="#fff" stroke-width="2"/><path d="m1981.36 620.646 18 18m-.71-18-18 18M2412.71 399l18 18m-.71-18-18 18M1721.71 1132l18 18m-.71-18-18 18" stroke="#fff" stroke-width="2"/></svg>