<svg width="170" height="170" fill="none" xmlns="http://www.w3.org/2000/svg"><path d="M156.73 48.51c3.819-4.694 6.053-10.615 6.053-16.899 0-14.776-11.989-26.8-26.723-26.8h-35.435c-.649 0-1.191.545-1.191 1.195v24.24c0 .256.074.501.255.725l8.649 11.448a1.203 1.203 0 0 1 0 1.44l-8.617 11.447c-.15.214-.255.47-.255.726v16.547c0 .65.542 1.195 1.191 1.195h12.893c.649 0 1.192-.544 1.192-1.195l-.032-13.837c0-.256.074-.502.255-.726l10.659-14.157a1.203 1.203 0 0 0 0-1.44L114.859 28.26c-.149-.213-.256-.47-.256-.725l-.074-6.284c0-.65.542-1.195 1.191-1.195h20.819c5.765 0 11.095 5.164 11.095 11.522 0 2.923-1.149 5.633-2.957 7.66l-14.372 19.14c2.159 3.286 5.978 8.78 10.734 14.883.212.288.574.469.936.469h16.967c1.043 0 1.585-1.227.862-1.984-3.851-4.225-7.351-8.6-10.223-12.387a1.203 1.203 0 0 1 0-1.44l7.17-9.388-.021-.022z" fill="#fff"/><circle cx="39.292" cy="39.292" r="39.292" fill="#fff"/><circle cx="39.292" cy="130.707" r="39.292" fill="#fff"/><circle cx="130.706" cy="130.707" r="39.292" fill="#fff"/></svg>