<svg width="80" height="80" fill="none" xmlns="http://www.w3.org/2000/svg"><rect width="80" height="80" rx="40" fill="#0142FF"/><path d="M55.648 45.142a17.386 17.386 0 0 0 3.555-10.556c0-9.23-7.04-16.74-15.694-16.74H22.7c-.38 0-.699.34-.699.746v15.141c0 .16.044.313.15.453l5.079 7.15a.79.79 0 0 1 0 .9l-5.06 7.151a.848.848 0 0 0-.15.453v10.336c0 .407.318.747.7.747h7.571c.381 0 .7-.34.7-.747l-.019-8.643c0-.16.044-.313.15-.453l6.26-8.844a.79.79 0 0 0 0-.9l-6.322-8.843a.849.849 0 0 1-.15-.453l-.044-3.925c0-.406.319-.746.7-.746H43.79c3.386 0 6.516 3.225 6.516 7.197a7.481 7.481 0 0 1-1.737 4.785l-8.44 11.955c1.268 2.053 3.51 5.485 6.303 9.297.125.18.338.293.55.293h9.965c.612 0 .93-.766.505-1.24-2.261-2.639-4.316-5.37-6.003-7.737a.79.79 0 0 1 0-.9l4.21-5.864-.012-.013z" fill="#fff"/></svg>