<svg width="52" height="53" fill="none" xmlns="http://www.w3.org/2000/svg"><g clip-path="url(#a)"><rect y=".5" width="52" height="52" rx="26" fill="#0142FF"/><g clip-path="url(#b)"><path d="M25.389 11.73h-.008C16.898 11.73 10 18.63 10 27.115a15.27 15.27 0 0 0 2.929 9.017l-1.918 5.716 5.914-1.89a15.252 15.252 0 0 0 8.463 2.542c8.483 0 15.381-6.902 15.381-15.385s-6.898-15.384-15.38-15.384zm8.951 21.726c-.37 1.047-1.844 1.917-3.019 2.17-.804.172-1.854.308-5.388-1.157-4.521-1.873-7.433-6.467-7.66-6.766-.217-.297-1.827-2.432-1.827-4.64 0-2.207 1.121-3.282 1.573-3.744.371-.379.985-.552 1.573-.552.19 0 .362.01.516.017.452.02.678.047.977.76.37.894 1.275 3.102 1.382 3.329.11.227.22.534.066.832-.145.308-.271.445-.498.706-.227.262-.443.462-.67.742-.207.245-.442.506-.18.958.261.442 1.165 1.918 2.496 3.102 1.717 1.529 3.11 2.017 3.607 2.225.372.154.814.117 1.085-.171.344-.371.77-.986 1.202-1.592.308-.435.696-.489 1.104-.335.415.144 2.613 1.23 3.065 1.456.452.227.75.335.86.525.108.19.108 1.085-.264 2.134z" fill="#fff"/></g></g><defs><clipPath id="a"><rect y=".5" width="52" height="52" rx="26" fill="#fff"/></clipPath><clipPath id="b"><path fill="#fff" transform="translate(10 11.73)" d="M0 0h30.769v30.769H0z"/></clipPath></defs></svg>